<svg xmlns="http://www.w3.org/2000/svg" width="197.858" height="37.005" viewBox="0 0 925 173">
  <defs>
    <style>
      .cls-1 {
        fill: none;
        stroke-width: 8px;
      }

      .cls-1, .cls-4 {
        stroke: #000;
        stroke-linecap: round;
        stroke-linejoin: round;
      }

      .cls-1, .cls-2, .cls-3, .cls-4 {
        fill-rule: evenodd;
      }

      .cls-2 {
        fill: #c10021;
      }

      .cls-4 {
        fill: #fff;
        fill-opacity: 0;
        stroke-width: 7px;
      }
    </style>
  </defs>
  <path id="Kształt_1_kopia_6" data-name="Kształt 1 kopia 6" class="cls-1" d="M211.081,141.331c7.057-4.432,12.238-8.21,13.16-8.8,2.376-2.993,11.571-14.925,14.954-16.559s7.484-3.419,7.9-6.085,4.1-13.289,4.1-13.289l1.314-4.273s-4.882-2.574-6.347-2.519-12,1.163-19.514,1.106S181.4,92.692,158.66,86.589,132.7,74.175,126.925,73.994c-5.356.06-25.508-.55-32.5,1.482-7.36,2.138-16.742,4.814-26.334,7.249s-1.61,9.686-1.61,9.686-4.375,3.969-4.606,5.178-4.292,2.454-7.72,2.837c-2.35.441-5.423-4.559-9.461-4.862s-28.091,6.8-29.626,8.156c-0.277.744,2.406,22.8,4.857,39.277"/>
  <path id="Kształt_2" data-name="Kształt 2" class="cls-2" d="M230,111a63.48,63.48,0,0,0-9,10c-2.608,3.879-7.792,10.121-13,10s-18.192-3.079-26,8-26.792,16.921-28,4-3.792-12.679-10-13-14.192.921-20,11-28.992,15.521-28,1-10.392-13.279-17-11-14.592,17.321-25,18-16.6,1.6-24-3l-2-19,0.294-.09L28,125s-0.792-2.279,6-5c8.312-3.33,52-19,52-19s3.758-2.079,17-3c14.984-1.043,46-3,46-3s3.345,0.771,7,2a132.228,132.228,0,0,0,13.582,2.534c1.954,0.282-.85,1.265-3.582,1.466-11.969.879-66.382,4.842-69,5a48.943,48.943,0,0,0-10,2L56,118s-4.995,1.717-5.983,3.151a2.641,2.641,0,0,0,1.829.834C61.566,119.317,79,114,79,114s4.808-1.279,20-2,130-4,130-4S232.808,108.321,230,111Z"/>
  <path id="Prostokąt_1" data-name="Prostokąt 1" class="cls-3" d="M66.413,71.088L55.787,43.681,41.206,80.732l-3.888,10.14c-1.166,3.12-3.3,6.825.583,6.825,0,0-14.329,4.746-13.267,2L63.175,0H75.228l24.6,62.98C85.7,65.913,70.847,69.881,66.413,71.088ZM27,148l19,7-34.335.981-0.01.025H-0.009V151.13c3.888,0,6.416-4.29,7.776-7.8l8.619-22.3c1.572-4.066,2.805,6,3.21,14.769l-0.185.47Z"/>
  <path id="Elipsa_4_kopia_25" data-name="Elipsa 4 kopia 25" class="cls-4" d="M17.941,130.967c1.083,6.269,7.4,20.545,28.908,20.545,7.894,0,17.407-5.082,20.408-11.35h0.02c3.067-6.2,11.816-11.207,19.649-11.207q0.737,0,1.428.058c0.176,0.015.338,0.046,0.509,0.065,0.276,0.033.558,0.06,0.822,0.106,0.215,0.038.414,0.093,0.621,0.139s0.414,0.084.609,0.139c0.236,0.065.453,0.148,0.675,0.225,0.148,0.052.306,0.095,0.449,0.152,0.247,0.1.473,0.213,0.7,0.326,0.1,0.05.214,0.093,0.312,0.146,0.25,0.135.479,0.285,0.705,0.438,0.063,0.042.135,0.079,0.2,0.122a7.711,7.711,0,0,1,.681.558c0.033,0.03.071,0.055,0.1,0.086a6.752,6.752,0,0,1,.627.681c0.011,0.014.025,0.025,0.036,0.039,1.611,2.026,1.88,4.827.445,7.927h0.02c-3,6.268.967,11.35,8.861,11.35s16.726-5.082,19.727-11.35h0.019a19.835,19.835,0,0,1,8.033-7.927c0.025-.014.05-0.025,0.074-0.039q0.628-.357,1.279-0.681c0.061-.031.124-0.056,0.185-0.086,0.4-.194.8-0.383,1.215-0.558,0.1-.043.21-0.08,0.314-0.122,0.372-.153.746-0.3,1.124-0.438,0.15-.053.3-0.1,0.452-0.146,0.337-.113.674-0.228,1.015-0.326,0.2-.057.4-0.1,0.594-0.152,0.3-.077.593-0.16,0.891-0.225,0.247-.055.494-0.093,0.741-0.139s0.5-.1.754-0.139c0.309-.046.616-0.073,0.923-0.106,0.191-.019.382-0.05,0.572-0.065q0.745-.057,1.483-0.058c7.833,0,11.791,5,8.921,11.207h0.019c-3,6.268.967,11.35,8.861,11.35s16.727-5.082,19.727-11.35h0.02c3.066-6.2,11.816-11.207,19.649-11.207s11.791,5,8.92,11.207h0.02c-1.709,3.571-3.9,5.65-.892,6.4"/>
  <path id="Elipsa_4_kopia_25-2" data-name="Elipsa 4 kopia 25" class="cls-4" d="M41.378,164.646c1.321,2.7,4.6,4.439,9.215,4.439,7.894,0,16.726-5.081,19.727-11.349h0.015c3.066-6.2,11.82-11.207,19.654-11.207q0.369,0,.726.015c0.083,0,.164.01,0.246,0.015,0.153,0.009.306,0.016,0.456,0.028,0.1,0.009.2,0.021,0.294,0.031,0.128,0.014.258,0.025,0.384,0.041,0.107,0.014.21,0.032,0.315,0.047s0.228,0.032.338,0.052,0.218,0.043.327,0.065,0.2,0.039.3,0.061c0.114,0.025.224,0.055,0.335,0.084,0.089,0.022.18,0.043,0.267,0.067,0.116,0.033.228,0.069,0.341,0.1,0.078,0.025.158,0.047,0.235,0.073,0.117,0.039.23,0.083,0.345,0.126,0.068,0.025.138,0.048,0.2,0.075,0.118,0.047.232,0.1,0.346,0.148,0.058,0.026.118,0.05,0.175,0.076,0.118,0.055.232,0.115,0.346,0.173,0.049,0.025.1,0.049,0.147,0.075,0.118,0.064.231,0.131,0.344,0.2,0.04,0.024.082,0.046,0.121,0.071,0.117,0.072.228,0.148,0.339,0.225,0.032,0.022.066,0.043,0.1,0.065,0.114,0.083.224,0.167,0.331,0.254,0.025,0.02.051,0.038,0.076,0.059,0.111,0.091.217,0.185,0.321,0.281l0.057,0.05c0.107,0.1.208,0.205,0.307,0.31l0.04,0.041c0.1,0.111.2,0.224,0.291,0.34l0.026,0.03c0.1,0.12.185,0.243,0.271,0.368l0.014,0.02c0.088,0.129.17,0.262,0.248,0.4l0.005,0.009c1.112,1.936,1.163,4.419-.093,7.133h0.015c-3,6.268.966,11.349,8.86,11.349s16.727-5.081,19.727-11.349h0.016a18.988,18.988,0,0,1,6.735-7.133l0.014-.009c0.206-.134.415-0.267,0.627-0.4l0.033-.02c0.206-.125.413-0.248,0.623-0.368l0.055-.03c0.2-.116.408-0.229,0.616-0.34l0.078-.041c0.2-.1.4-0.209,0.605-0.31l0.1-.05q0.292-.144.59-0.281c0.044-.021.088-0.039,0.132-0.059,0.19-.087.381-0.171,0.574-0.254l0.16-.065c0.185-.077.369-0.153,0.555-0.225,0.063-.025.127-0.047,0.19-0.071,0.177-.068.355-0.135,0.534-0.2,0.072-.026.146-0.05,0.218-0.075,0.171-.058.341-0.118,0.512-0.173l0.248-.076c0.163-.05.326-0.1,0.489-0.148,0.092-.027.184-0.05,0.277-0.075,0.154-.043.309-0.087,0.465-0.126,0.1-.026.2-0.048,0.3-0.073,0.147-.035.293-0.071,0.44-0.1,0.111-.024.222-0.045,0.332-0.067,0.139-.029.277-0.059,0.416-0.084,0.119-.022.239-0.041,0.359-0.061s0.259-.046.389-0.065,0.258-.035.388-0.052,0.24-.033.36-0.047c0.141-.016.282-0.027,0.423-0.041,0.108-.01.216-0.022,0.324-0.031,0.161-.012.322-0.019,0.483-0.028,0.087,0,.174-0.012.26-0.015,0.248-.01.494-0.015,0.74-0.015,7.834,0,11.8,5,8.925,11.207h0.015c-3,6.268.967,11.349,8.861,11.349s16.726-5.081,19.727-11.349h0.015c3.066-6.2,11.82-11.207,19.654-11.207s11.8,5,8.925,11.207h0.015c-3,6.268.966,11.349,8.861,11.349a24.679,24.679,0,0,0,14.136-4.92"/>
  <path id="Atlanca" class="cls-3" d="M891.62,153.769V139.676c-4.813,7.734-16.327,16.5-30.077,16.5-13.577,0-28.013-6.7-28.013-25.264,0-33.342,61.527-22.171,57.574-50.185-1.2-8.765-7.39-12.89-16.155-12.89-18.561,0-24.061,16.327-24.061,29.389H842.81V66.118c14.093-1.547,20.8-2.406,32.139-2.406,30.248,0,42.45,18.218,42.45,46.059V142.6a7.393,7.393,0,0,0,6.875,6.875v4.3H891.62Zm0-59.637c-3.094,10.655-30.764,19.077-30.764,36.779,0,9.108,4.3,14.78,12.374,14.78s16.671-8.765,18.39-16.5V109.771C891.62,109.256,891.792,101.694,891.62,94.132ZM742.281,109.943c0-27.67,20.28-46.231,51.044-46.231,11.343,0,15.811.859,29.9,2.406V97.225h-8.078c0-13.062-6.015-29.389-21.826-29.389-14.781,0-23.546,16.671-23.546,42.107s8.765,42.107,23.546,42.107c15.811,0,21.826-16.327,21.826-29.389h8.078v31.108c-14.093,1.546-18.561,2.406-29.9,2.406C762.561,156.175,742.281,137.613,742.281,109.943Zm-41.236,3.781V88.976c0-9.8-5.155-14.78-13.921-14.78-6.358,0-12.889,5.328-16.327,11.343V142.6a7.393,7.393,0,0,0,6.875,6.875v4.3H645.018V77.289a7.393,7.393,0,0,0-6.875-6.874v-4.3H670.8V77.289c5.672-6.7,15.984-13.577,28.014-13.577,13.577,0,28.014,6.7,28.014,25.264V142.6a7.393,7.393,0,0,0,6.875,6.875v4.3H701.045V113.724ZM598.627,139.676c-4.812,7.734-16.327,16.5-30.076,16.5-13.577,0-28.014-6.7-28.014-25.264,0-33.342,61.527-22.171,57.574-50.185-1.2-8.765-7.39-12.89-16.155-12.89-18.561,0-24.061,16.327-24.061,29.389h-8.077V66.118c14.092-1.547,20.8-2.406,32.138-2.406,30.248,0,42.451,18.218,42.451,46.059V142.6a7.392,7.392,0,0,0,6.874,6.875v4.3H598.627V139.676Zm0-45.544c-3.094,10.655-30.764,19.077-30.764,36.779,0,9.108,4.3,14.78,12.375,14.78s16.67-8.765,18.389-16.5V109.771C598.627,109.256,598.8,101.694,598.627,94.132ZM499.3,27.449a7.393,7.393,0,0,0-6.874-6.875v-4.3h32.654V142.6a7.392,7.392,0,0,0,6.874,6.875v4.3H499.3V27.449ZM464.245,156.175c-13.578,0-28.014-6.7-28.014-25.264V77.289a7.393,7.393,0,0,0-6.875-6.874v-4.3h6.875V44.635a7.394,7.394,0,0,0-6.875-6.875v-4.3H462.01V66.118h23.546v4.3H468.885a7.393,7.393,0,0,0-6.875,6.874v53.622c0,9.8,5.156,14.78,13.921,14.78a17.178,17.178,0,0,0,9.625-3.609v5.5C481.6,152.394,473.353,156.175,464.245,156.175Zm-94.167-38.154-1.719-4.469c-1.375-3.437-3.781-6.874-7.218-6.874H329.518c-3.094,0-5.5,2.921-6.875,6.015l-1.375,3.437-0.687,1.891-14.093,35.748H296.176v-4.3c3.437,0,5.671-3.781,6.875-6.875l48.981-126.32h10.655l49.5,126.32c1.2,2.922,3.438,6.875,6.875,6.875v4.3H384Zm-7.562-19.249-0.172-.687-0.688-1.719L359.938,91.9,345.5,54.775l-12.89,32.654-3.437,8.937c-1.031,2.75-2.922,6.015.515,6.015h31.452C363.547,102.381,363.375,100.663,362.516,98.772Z"/>
</svg>
