<svg xmlns="http://www.w3.org/2000/svg" width="197.847" height="36.912" viewBox="0 0 197.847 36.912">
  <g id="Atlanca_logo_kopia" data-name="Atlanca logo kopia" transform="translate(-49.998 -50)">
    <g id="Atlanca_logo_kopia-2" data-name="Atlanca logo kopia" transform="translate(50 50)">
      <g id="Grupa_1" data-name="Grupa 1">
        <path id="Kształt_1_kopia_6" data-name="Kształt 1 kopia 6" d="M45.183,30.227c1.511-.948,2.62-1.756,2.817-1.883.509-.64,2.477-3.192,3.2-3.542s1.6-.731,1.691-1.3.878-2.842.878-2.842l.281-.914a5.529,5.529,0,0,0-1.359-.539c-.314.012-2.569.249-4.177.236s-9.684.381-14.552-.924-5.557-2.655-6.793-2.694c-1.146.013-5.46-.118-6.958.317-1.575.457-3.584,1.03-5.637,1.55s-.345,2.072-.345,2.072-.937.849-.986,1.107-.919.525-1.653.607c-.5.094-1.161-.975-2.025-1.04a29.822,29.822,0,0,0-6.342,1.744c-.059.159.515,4.877,1.04,8.4" fill="none" stroke="#000" stroke-linecap="round" stroke-linejoin="round" stroke-width="1.712"/>
        <path id="Kształt_2" data-name="Kształt 2" d="M49.232,23.74a13.581,13.581,0,0,0-1.926,2.139c-.558.83-1.668,2.165-2.783,2.139s-3.894-.658-5.565,1.711-5.735,3.619-5.994.855-.812-2.712-2.141-2.78a4.292,4.292,0,0,0-4.281,2.353c-1.243,2.156-6.206,3.32-5.994.214s-2.224-2.84-3.639-2.353-3.123,3.7-5.351,3.85-3.553.342-5.137-.642l-.428-4.064.063-.019-.063-.408s-.17-.487,1.284-1.069C9.057,24.953,18.409,21.6,18.409,21.6a10.355,10.355,0,0,1,3.639-.642c3.207-.223,9.846-.642,9.846-.642s.716.165,1.5.428a28.328,28.328,0,0,0,2.907.542c.418.06-.182.271-.767.314-2.562.188-14.209,1.036-14.77,1.069a10.476,10.476,0,0,0-2.141.428l-6.636,2.139a3.955,3.955,0,0,0-1.281.674.566.566,0,0,0,.392.178c2.08-.571,5.812-1.708,5.812-1.708a24.731,24.731,0,0,1,4.281-.428c3.252-.154,27.827-.855,27.827-.855S49.833,23.167,49.232,23.74Z" fill="#c10021"/>
        <path id="Prostokąt_1" data-name="Prostokąt 1" d="M14.216,15.2,11.941,9.342,8.82,17.266l-.832,2.169c-.25.667-.707,1.46.125,1.46,0,0-3.067,1.015-2.84.428L13.523,0H16.1l5.266,13.47C18.345,14.1,15.165,14.946,14.216,15.2ZM5.779,31.653l4.067,1.5-7.35.21,0,.005H0V32.323c.832,0,1.373-.918,1.665-1.668l1.845-4.769c.336-.87.6,1.284.687,3.159l-.04.1Z"/>
        <path id="Elipsa_4_kopia_25" data-name="Elipsa 4 kopia 25" d="M3.84,28.01c.232,1.341,1.584,4.394,6.188,4.394A5.262,5.262,0,0,0,14.4,29.977h0a5.018,5.018,0,0,1,4.206-2.4q.158,0,.306.012c.038,0,.072.01.109.014.059.007.119.013.176.023s.089.02.133.03.089.018.13.03.1.032.145.048c.032.011.066.02.1.032.053.021.1.046.15.07.022.011.046.02.067.031a1.776,1.776,0,0,1,.151.094c.014.009.029.017.042.026a1.624,1.624,0,0,1,.146.119l.022.018a1.459,1.459,0,0,1,.134.146l.008.008a1.563,1.563,0,0,1,.1,1.7h0c-.642,1.341.207,2.427,1.9,2.427a5.005,5.005,0,0,0,4.223-2.427h0a4.242,4.242,0,0,1,1.72-1.7l.016-.008c.09-.051.181-.1.274-.146l.04-.018c.086-.042.172-.082.26-.119l.067-.026c.08-.033.16-.065.241-.094.032-.011.065-.021.1-.031.072-.024.144-.049.217-.07.042-.012.085-.021.127-.032.064-.017.127-.034.191-.048s.106-.02.159-.03.108-.022.161-.03.132-.016.2-.023c.041,0,.082-.011.122-.014q.16-.012.318-.012c1.677,0,2.524,1.07,1.909,2.4h0c-.642,1.341.207,2.427,1.9,2.427a5.005,5.005,0,0,0,4.223-2.427h0a5.018,5.018,0,0,1,4.206-2.4c1.677,0,2.524,1.07,1.909,2.4h0c-.366.764-.835,1.208-.191,1.369" fill="rgba(255,255,255,0)" stroke="#000" stroke-linecap="round" stroke-linejoin="round" stroke-width="1.498"/>
        <path id="Elipsa_4_kopia_25-2" data-name="Elipsa 4 kopia 25" d="M8.857,35.213a2.059,2.059,0,0,0,1.972.949,5.005,5.005,0,0,0,4.223-2.427h0a5.02,5.02,0,0,1,4.207-2.4q.079,0,.155,0l.053,0,.1.006.063.007.082.009.067.01.072.011.07.014.064.013.072.018.057.014.073.022.05.016.074.027.044.016.074.032.038.016.074.037.032.016.074.042.026.015c.025.016.049.032.073.048l.021.014c.024.018.048.036.071.054l.016.013c.024.02.046.04.069.06l.012.011c.023.021.045.044.066.066l.009.009c.022.024.042.048.062.073l.005.007c.02.026.04.052.058.079l0,0c.019.028.036.056.053.085v0a1.622,1.622,0,0,1-.02,1.525h0c-.642,1.341.207,2.427,1.9,2.427A5.005,5.005,0,0,0,27.3,33.735h0A4.064,4.064,0,0,1,28.74,32.21l0,0,.134-.085.007,0,.133-.079.012-.007.132-.073.017-.009.129-.066.022-.011.126-.06.028-.013.123-.054.034-.014.119-.048.041-.015.114-.042.047-.016.11-.037.053-.016.1-.032.059-.016.1-.027.065-.016.094-.022.071-.014.089-.018.077-.013.083-.014.083-.011.077-.01.09-.009.069-.007.1-.006.056,0q.079,0,.158,0c1.677,0,2.525,1.07,1.91,2.4h0c-.642,1.341.207,2.427,1.9,2.427a5.005,5.005,0,0,0,4.223-2.427h0a5.02,5.02,0,0,1,4.207-2.4c1.677,0,2.525,1.07,1.91,2.4h0c-.642,1.341.207,2.427,1.9,2.427a5.286,5.286,0,0,0,3.026-1.052" fill="rgba(255,255,255,0)" stroke="#000" stroke-linecap="round" stroke-linejoin="round" stroke-width="1.498"/>
        <path id="Atlanca" d="M190.855,32.887V29.873a7.97,7.97,0,0,1-6.438,3.529c-2.906,0-6-1.434-6-5.4,0-7.131,13.17-4.742,12.324-10.733-.258-1.875-1.582-2.757-3.458-2.757-3.973,0-5.15,3.492-5.15,6.285h-1.729V14.141a55.278,55.278,0,0,1,6.879-.515c6.475,0,9.087,3.9,9.087,9.851V30.5a1.582,1.582,0,0,0,1.472,1.47v.919Zm0-12.755c-.662,2.279-6.585,4.08-6.585,7.866,0,1.948.92,3.161,2.649,3.161s3.568-1.875,3.936-3.529V23.477C190.855,23.367,190.892,21.75,190.855,20.132Zm-31.967,3.382c0-5.918,4.341-9.888,10.926-9.888a48.449,48.449,0,0,1,6.4.515v6.653h-1.729c0-2.794-1.288-6.285-4.672-6.285-3.164,0-5.04,3.565-5.04,9.005s1.876,9.005,5.04,9.005c3.384,0,4.672-3.492,4.672-6.285h1.729v6.653a48.452,48.452,0,0,1-6.4.515C163.229,33.4,158.888,29.432,158.888,23.514Zm-8.827.809V19.03c0-2.1-1.1-3.161-2.98-3.161a4.528,4.528,0,0,0-3.495,2.426V30.5a1.582,1.582,0,0,0,1.472,1.47v.919h-6.99V16.53a1.582,1.582,0,0,0-1.472-1.47v-.919h6.99V16.53a8.176,8.176,0,0,1,6-2.9c2.906,0,6,1.434,6,5.4V30.5a1.582,1.582,0,0,0,1.472,1.47v.919h-6.99Zm-21.923,5.55A7.97,7.97,0,0,1,121.7,33.4c-2.906,0-6-1.434-6-5.4,0-7.131,13.17-4.742,12.324-10.733-.258-1.875-1.582-2.757-3.458-2.757-3.973,0-5.15,3.492-5.15,6.285h-1.729V14.141a55.278,55.278,0,0,1,6.879-.515c6.475,0,9.087,3.9,9.087,9.851V30.5a1.582,1.582,0,0,0,1.472,1.47v.919h-6.99Zm0-9.741c-.662,2.279-6.585,4.08-6.585,7.866,0,1.948.92,3.161,2.649,3.161s3.568-1.875,3.936-3.529V23.477C128.139,23.367,128.175,21.75,128.139,20.132ZM106.876,5.87A1.582,1.582,0,0,0,105.4,4.4V3.481h6.99V30.5a1.582,1.582,0,0,0,1.472,1.47v.919h-6.99ZM99.373,33.4c-2.906,0-6-1.434-6-5.4V16.53a1.582,1.582,0,0,0-1.472-1.47v-.919h1.472V9.546a1.582,1.582,0,0,0-1.472-1.47V7.157H98.9v6.984h5.04v.919h-3.568A1.582,1.582,0,0,0,98.9,16.53V28c0,2.1,1.1,3.161,2.98,3.161a3.678,3.678,0,0,0,2.06-.772v1.176A6.1,6.1,0,0,1,99.373,33.4Zm-20.157-8.16-.368-.956c-.294-.735-.809-1.47-1.545-1.47H70.535c-.662,0-1.177.625-1.472,1.287l-.294.735-.147.4L65.6,32.887H63.4v-.919c.736,0,1.214-.809,1.472-1.47L75.354,3.481h2.281L88.23,30.5c.258.625.736,1.47,1.472,1.47v.919H82.2ZM77.6,21.125l-.037-.147-.147-.368-.368-.956-3.09-7.94L71.2,18.7l-.736,1.911c-.221.588-.625,1.286.11,1.286H77.3C77.819,21.9,77.782,21.529,77.6,21.125Z"/>
      </g>
    </g>
    <path id="Color_Overlay" data-name="Color Overlay" d="M95.547,85.123l5.039-.013a5.285,5.285,0,0,1-3.027,1.053A2,2,0,0,1,95.547,85.123Zm-12.231.031,4.986-.013a5.285,5.285,0,0,1-2.985,1.022A2.023,2.023,0,0,1,83.316,85.154Zm-12.229.03,4.929-.012a5.273,5.273,0,0,1-2.943.992A2.039,2.039,0,0,1,71.087,85.183Zm-12.229.031,4.872-.012a5.263,5.263,0,0,1-2.9.961A2.06,2.06,0,0,1,58.857,85.214Zm6.2-1.478h0a5.021,5.021,0,0,1,4.207-2.4l.155,0,.053,0,.1.006.063.006.083.009.067.01c.024,0,.049.006.073.011l.07.014.064.013.072.018.057.014.074.022.049.015c.025.008.049.018.074.027s.03.01.044.016l.074.031.038.016.063.032a1.451,1.451,0,0,1-.177-1.165L64.1,80.5c-.037.035-.076.069-.113.1a5.608,5.608,0,0,1-3.956,1.8,6.365,6.365,0,0,1-4.865-1.83h-.081l.7,1.077,4.067,1.5-7.35.21,0,.005H50V82.323c.833,0,1.373-.917,1.664-1.669,0,0,.738-1.906,1.845-4.768a.515.515,0,0,1,.093-.167c-.244-1.933-.409-3.447-.375-3.535a12.108,12.108,0,0,1,2.063-.739.1.1,0,0,1-.014-.121C58.763,62.305,63.523,50,63.523,50H66.1L71.369,63.47c-3.024.627-6.2,1.476-7.153,1.734l-2.274-5.862L58.82,67.267l-.832,2.169c-.19.508-.5,1.087-.272,1.336a8.755,8.755,0,0,1,1.849-.333c.864.064,1.522,1.134,2.025,1.04.733-.082,1.6-.348,1.652-.607s.986-1.108.986-1.108-1.709-1.551.345-2.072,4.061-1.093,5.637-1.55a30.094,30.094,0,0,1,5.924-.321c.441,0,.8.006,1.034,0,1.236.039,1.924,1.388,6.792,2.694,3.931,1.053,9.953,1,12.974.946.72-.013,1.27-.025,1.579-.022,1.607.013,3.864-.224,4.177-.236a5.546,5.546,0,0,1,1.359.538l-.282.914s-.789,2.272-.878,2.841-.967.952-1.69,1.3-2.693,2.9-3.2,3.541c-.2.127-1.307.935-2.817,1.883l-.305,0c-.33.61-.632.975-.062,1.117l-6.521-.531a3.643,3.643,0,0,0,.419-.532l-.21,0a6,6,0,0,1-.532.5l.323.026A5.3,5.3,0,0,1,84.66,82.4a2.8,2.8,0,0,1-1.269-.267,1.594,1.594,0,0,1,.025,1.6h0a1.7,1.7,0,0,0-.1,1.418l-7.3.018a3.911,3.911,0,0,0,1.28-1.436h0a4.058,4.058,0,0,1,1.442-1.525l0,0c.044-.029.089-.058.134-.085l.007,0,.133-.079.012-.006c.044-.024.087-.049.132-.072l.016-.009.13-.067.023-.011.127-.06.028-.013.122-.054.035-.014.119-.048.04-.015.114-.042.047-.016.109-.037.053-.016.105-.031.059-.016.1-.027.065-.015.094-.022.071-.014.089-.018.076-.013.084-.014.083-.011.077-.01.09-.009.069-.006.1-.006.056,0,.158,0a2.8,2.8,0,0,1,1.269.267,1.481,1.481,0,0,1-.155-1.253l-.194-.016-6.028.053A5.187,5.187,0,0,1,72.418,82.4a2.792,2.792,0,0,1-1.27-.268c.015.023.031.048.044.072l0,0a1.623,1.623,0,0,1-.021,1.525h0a1.678,1.678,0,0,0-.09,1.447l-7.358.019A3.946,3.946,0,0,0,65.053,83.736Zm17.573-3.4-.005.017.325.026-.005-.047Zm6.914,3.4h0a5.021,5.021,0,0,1,4.208-2.4c1.677,0,2.524,1.07,1.91,2.4h0a1.7,1.7,0,0,0-.116,1.387l-7.245.018A3.885,3.885,0,0,0,89.539,83.736ZM228.421,78c0-7.131,13.17-4.741,12.324-10.733-.257-1.875-1.581-2.758-3.458-2.758-3.973,0-5.151,3.492-5.151,6.286h-1.729V64.141a55.211,55.211,0,0,1,6.88-.515c6.475,0,9.086,3.9,9.086,9.851V80.5a1.582,1.582,0,0,0,1.472,1.471v.919h-6.989V79.873a7.971,7.971,0,0,1-6.438,3.529C231.511,83.4,228.421,81.968,228.421,78Zm5.849,0c0,1.948.92,3.161,2.649,3.161s3.569-1.874,3.937-3.528V73.478c0-.111.037-1.728,0-3.345C240.193,72.411,234.27,74.212,234.27,78Zm-25.381-4.484c0-5.918,4.341-9.888,10.926-9.888a48.394,48.394,0,0,1,6.4.515v6.653h-1.729c0-2.794-1.288-6.286-4.672-6.286-3.164,0-5.04,3.566-5.04,9.006s1.876,9.005,5.04,9.005c3.384,0,4.672-3.492,4.672-6.286h1.729v6.653a48.4,48.4,0,0,1-6.4.515C213.23,83.4,208.889,79.432,208.889,73.515ZM165.7,78c0-7.131,13.171-4.741,12.325-10.733-.258-1.875-1.582-2.758-3.459-2.758-3.973,0-5.15,3.492-5.15,6.286h-1.73V64.141a55.211,55.211,0,0,1,6.88-.515c6.475,0,9.087,3.9,9.087,9.851V80.5a1.582,1.582,0,0,0,1.471,1.471v.919h-6.99V79.873A7.969,7.969,0,0,1,171.7,83.4C168.795,83.4,165.7,81.968,165.7,78Zm5.849,0c0,1.948.92,3.161,2.649,3.161s3.568-1.874,3.937-3.528V73.478c0-.111.037-1.728,0-3.345C177.476,72.411,171.553,74.212,171.553,78Zm-28.176,0V66.531a1.582,1.582,0,0,0-1.471-1.471v-.919h1.471V59.547a1.582,1.582,0,0,0-1.471-1.471v-.919h6.99v6.984h5.039v.919h-3.568a1.582,1.582,0,0,0-1.472,1.471V78c0,2.1,1.1,3.161,2.979,3.161a3.674,3.674,0,0,0,2.06-.771v1.176a6.1,6.1,0,0,1-4.561,1.838C146.468,83.4,143.377,81.968,143.377,78Zm56.685,4.889V69.03c0-2.1-1.1-3.161-2.98-3.161a4.529,4.529,0,0,0-3.495,2.425V80.5a1.582,1.582,0,0,0,1.471,1.471v.919h-6.989V66.531A1.582,1.582,0,0,0,186.6,65.06v-.919h6.989v2.389a8.176,8.176,0,0,1,6-2.9c2.906,0,6,1.434,6,5.4V80.5a1.582,1.582,0,0,0,1.472,1.471v.919Zm-43.185,0V55.871a1.582,1.582,0,0,0-1.471-1.471v-.919H162.4V80.5a1.582,1.582,0,0,0,1.471,1.471v.919Zm-24.681,0-2.98-7.646-.367-.956c-.294-.735-.81-1.47-1.545-1.47h-6.769c-.662,0-1.177.625-1.471,1.286l-.294.735-.148.4-3.017,7.646H113.4v-.919c.735,0,1.214-.809,1.472-1.471l10.484-27.016h2.281L138.23,80.5c.257.625.736,1.471,1.471,1.471v.919ZM121.2,68.7l-.736,1.912c-.22.589-.626,1.287.111,1.287H127.3c.515,0,.478-.368.294-.772l-.037-.148-.147-.367-.368-.956-3.091-7.94Z" fill="#fff"/>
  </g>
</svg>
