<svg xmlns="http://www.w3.org/2000/svg" width="55.886" height="36.919" viewBox="0 0 55.886 36.919">
  <g id="Grupa_2" data-name="Grupa 2" transform="translate(-49.998 -4836)">
    <g id="Grupa_2-2" data-name="Grupa 2" transform="translate(50 4836)">
      <g id="Grupa_2-3" data-name="Grupa 2">
        <path id="Kształt_1_kopia_6" data-name="Kształt 1 kopia 6" d="M45.994,30.227c1.538-.948,2.667-1.756,2.868-1.883.518-.64,2.521-3.192,3.259-3.542s1.631-.731,1.721-1.3.893-2.842.893-2.842l.286-.914a5.686,5.686,0,0,0-1.383-.539c-.319.012-2.616.249-4.252.236s-9.858.381-14.814-.924-5.657-2.655-6.915-2.694c-1.167.013-5.558-.118-7.083.317-1.6.457-3.648,1.03-5.738,1.55s-.351,2.072-.351,2.072-.953.849-1,1.107-.935.525-1.682.607c-.512.094-1.182-.975-2.062-1.04a30.785,30.785,0,0,0-6.456,1.744c-.06.159.524,4.877,1.058,8.4" fill="none" stroke="#000" stroke-linecap="round" stroke-linejoin="round" stroke-width="1.727"/>
        <path id="Kształt_2" data-name="Kształt 2" d="M50.117,23.74a13.668,13.668,0,0,0-1.961,2.139c-.568.83-1.7,2.165-2.833,2.139s-3.964-.658-5.665,1.711-5.838,3.619-6.1.855-.826-2.712-2.179-2.78a4.391,4.391,0,0,0-4.358,2.353c-1.266,2.156-6.317,3.32-6.1.214s-2.264-2.84-3.7-2.353-3.18,3.7-5.447,3.85-3.617.342-5.23-.642L6.1,27.162l.064-.019L6.1,26.734s-.173-.487,1.307-1.069C9.22,24.953,18.739,21.6,18.739,21.6a10.7,10.7,0,0,1,3.7-.642c3.265-.223,10.023-.642,10.023-.642s.729.165,1.525.428a29.3,29.3,0,0,0,2.96.542c.426.06-.185.271-.781.314-2.608.188-14.465,1.036-15.035,1.069a10.83,10.83,0,0,0-2.179.428L12.2,25.237a4.053,4.053,0,0,0-1.3.674.581.581,0,0,0,.4.178c2.118-.571,5.917-1.708,5.917-1.708a25.607,25.607,0,0,1,4.358-.428C24.882,23.8,49.9,23.1,49.9,23.1S50.729,23.167,50.117,23.74Z" fill="#c10021"/>
        <path id="Prostokąt_1" data-name="Prostokąt 1" d="M14.471,15.2,12.156,9.342,8.979,17.266l-.847,2.169c-.254.667-.72,1.46.127,1.46,0,0-3.122,1.015-2.891.428L13.766,0h2.626l5.361,13.47C18.674,14.1,15.438,14.946,14.471,15.2ZM5.883,31.653l4.14,1.5-7.482.21,0,.005H0V32.323c.847,0,1.4-.918,1.694-1.668l1.878-4.769c.343-.87.611,1.284.7,3.159l-.04.1Z"/>
        <path id="Elipsa_4_kopia_25" data-name="Elipsa 4 kopia 25" d="M3.909,28.01c.236,1.341,1.613,4.394,6.3,4.394a5.378,5.378,0,0,0,4.447-2.427h0a5.126,5.126,0,0,1,4.282-2.4q.161,0,.311.012c.038,0,.074.01.111.014.06.007.122.013.179.023s.09.02.135.03.09.018.133.03.1.032.147.048c.032.011.067.02.1.032.054.021.1.046.153.07.022.011.047.02.068.031.054.029.1.061.154.094.014.009.029.017.043.026a1.651,1.651,0,0,1,.148.119l.023.018a1.469,1.469,0,0,1,.137.146l.008.008a1.54,1.54,0,0,1,.1,1.7h0c-.654,1.341.211,2.427,1.931,2.427a5.112,5.112,0,0,0,4.3-2.427h0a4.282,4.282,0,0,1,1.75-1.7l.016-.008c.091-.051.184-.1.279-.146l.04-.018c.087-.042.175-.082.265-.119l.068-.026c.081-.033.162-.065.245-.094.033-.011.066-.021.1-.031.073-.024.147-.049.221-.07.043-.012.086-.021.129-.032.065-.017.129-.034.194-.048s.108-.02.161-.03.11-.022.164-.03.134-.016.2-.023c.041,0,.083-.011.124-.014q.162-.012.323-.012c1.707,0,2.569,1.07,1.944,2.4h0c-.654,1.341.211,2.427,1.931,2.427a5.112,5.112,0,0,0,4.3-2.427h0a5.126,5.126,0,0,1,4.281-2.4c1.707,0,2.569,1.07,1.944,2.4h0c-.372.764-.85,1.208-.194,1.369" fill="rgba(255,255,255,0)" stroke="#000" stroke-linecap="round" stroke-linejoin="round" stroke-width="1.511"/>
        <path id="Elipsa_4_kopia_25-2" data-name="Elipsa 4 kopia 25" d="M9.016,35.213a2.107,2.107,0,0,0,2.008.949,5.112,5.112,0,0,0,4.3-2.427h0a5.128,5.128,0,0,1,4.282-2.4q.08,0,.158,0l.054,0,.1.006.064.007.084.009.069.01.074.011.071.014.066.013.073.018.058.014.074.022.051.016.075.027.045.016.075.032.038.016.075.037.032.016.075.042.026.015c.025.016.05.032.074.048l.021.014c.025.018.049.036.072.054l.017.013c.024.02.047.04.07.06l.012.011c.023.021.045.044.067.066l.009.009c.022.024.043.048.063.073l.006.007c.021.026.04.052.059.079l0,0c.019.028.037.056.054.085v0a1.6,1.6,0,0,1-.02,1.525h0c-.654,1.341.211,2.427,1.931,2.427a5.112,5.112,0,0,0,4.3-2.427h0a4.1,4.1,0,0,1,1.468-1.525l0,0,.137-.085.007,0,.136-.079.012-.007.134-.073.017-.009.132-.066.023-.011.129-.06.029-.013.125-.054.035-.014.121-.048.041-.015.116-.042.048-.016.112-.037.054-.016.107-.032.06-.016.1-.027L31,31.469l.1-.022.072-.014.091-.018.078-.013.085-.014.084-.011.079-.01.092-.009.071-.007.105-.006.057,0q.081,0,.161,0c1.707,0,2.57,1.07,1.945,2.4h0c-.654,1.341.211,2.427,1.931,2.427a5.112,5.112,0,0,0,4.3-2.427h0a5.128,5.128,0,0,1,4.282-2.4c1.707,0,2.57,1.07,1.945,2.4h0c-.654,1.341.211,2.427,1.931,2.427a5.443,5.443,0,0,0,3.08-1.052" fill="rgba(255,255,255,0)" stroke="#000" stroke-linecap="round" stroke-linejoin="round" stroke-width="1.511"/>
      </g>
    </g>
    <path id="Color_Overlay" data-name="Color Overlay" d="M96.364,4871.123l5.129-.013a5.434,5.434,0,0,1-3.08,1.054A2.05,2.05,0,0,1,96.364,4871.123Zm-12.45.031,5.076-.012a5.447,5.447,0,0,1-3.039,1.022A2.069,2.069,0,0,1,83.914,4871.153Zm-12.449.029,5.017-.012a5.426,5.426,0,0,1-2.995.993A2.084,2.084,0,0,1,71.465,4871.183Zm-12.449.031,4.959-.011a5.427,5.427,0,0,1-2.952.961A2.109,2.109,0,0,1,59.016,4871.213Zm6.307-1.477h0a5.131,5.131,0,0,1,4.283-2.4c.054,0,.105,0,.158,0,.018,0,.035,0,.054,0s.067,0,.1.006l.064.006.084.008.068.01c.026,0,.049.006.073.011l.071.015.066.012.073.019c.02,0,.039.008.059.015l.073.022c.017,0,.035.01.051.016s.05.019.076.027l.044.016.076.032.038.016c.022.01.044.021.065.032a1.435,1.435,0,0,1-.182-1.166l-6.367.055-.114.1a5.758,5.758,0,0,1-4.03,1.805,6.54,6.54,0,0,1-4.952-1.83h-.083l.71,1.077,4.14,1.5-7.482.21,0,0H50v-1.043c.847,0,1.4-.917,1.694-1.669,0,0,.752-1.906,1.878-4.767a.534.534,0,0,1,.094-.167c-.248-1.932-.416-3.447-.381-3.535a12.431,12.431,0,0,1,2.1-.74.1.1,0,0,1-.015-.121c3.552-9.018,8.4-21.322,8.4-21.322h2.626l5.362,13.469c-3.079.627-6.316,1.476-7.283,1.735l-2.315-5.862-3.178,7.925-.846,2.169c-.194.507-.51,1.087-.276,1.336a9.071,9.071,0,0,1,1.882-.334c.88.065,1.549,1.135,2.062,1.04.747-.082,1.632-.347,1.683-.606s1-1.108,1-1.108-1.74-1.55.35-2.071,4.135-1.093,5.738-1.549a31.049,31.049,0,0,1,6.032-.321c.448,0,.816.006,1.052,0,1.258.039,1.959,1.388,6.915,2.694,4,1.053,10.132,1,13.207.946.732-.012,1.292-.025,1.607-.022,1.636.012,3.934-.225,4.253-.236a5.673,5.673,0,0,1,1.383.538l-.286.915s-.8,2.271-.894,2.84-.984.953-1.722,1.3-2.74,2.9-3.257,3.541c-.2.127-1.33.936-2.867,1.883l-.311,0c-.336.61-.643.974-.064,1.116l-6.638-.531a3.588,3.588,0,0,0,.426-.532l-.213,0a6.213,6.213,0,0,1-.54.5l.328.026a5.434,5.434,0,0,1-3.7,1.59,2.9,2.9,0,0,1-1.292-.268,1.573,1.573,0,0,1,.026,1.6h0a1.667,1.667,0,0,0-.105,1.417l-7.432.017a3.919,3.919,0,0,0,1.3-1.434h0a4.082,4.082,0,0,1,1.467-1.526h0c.045-.029.09-.058.137-.085a.01.01,0,0,1,.007,0l.135-.08.012-.006.135-.072s.012-.006.017-.01l.132-.066.023-.011.127-.06.029-.013.125-.054.035-.014c.04-.017.079-.033.121-.047l.04-.016c.039-.015.078-.029.117-.042a.478.478,0,0,1,.048-.017l.111-.037.054-.016.106-.032c.02-.006.04-.011.061-.016s.067-.02.1-.027l.066-.016.1-.022c.024-.006.048-.01.072-.015l.09-.019.078-.012.086-.015c.027,0,.055-.007.084-.011l.078-.01.092-.008.071-.006c.035,0,.07,0,.105-.006.02,0,.038,0,.057,0,.054,0,.106,0,.16,0a2.9,2.9,0,0,1,1.292.268,1.449,1.449,0,0,1-.158-1.252l-.2-.017-6.138.054a5.311,5.311,0,0,1-4.051,2.014,2.889,2.889,0,0,1-1.292-.268l.045.072h0a1.6,1.6,0,0,1-.02,1.526h0a1.649,1.649,0,0,0-.092,1.446l-7.489.02A3.986,3.986,0,0,0,65.323,4869.736Zm17.888-3.4a.155.155,0,0,0,0,.017l.33.026c0-.016,0-.031,0-.048Zm7.038,3.4h0a5.131,5.131,0,0,1,4.283-2.4c1.707,0,2.57,1.071,1.945,2.4h0a1.681,1.681,0,0,0-.119,1.386l-7.374.019A3.918,3.918,0,0,0,90.249,4869.736Z" fill="#fff"/>
  </g>
</svg>
