<svg xmlns="http://www.w3.org/2000/svg" width="114.714" height="140.376" viewBox="0 0 114.714 140.376">
  <g id="icon_safety" data-name="icon safety" transform="translate(-716.143 -4055.624)">
    <path id="Kształt_2858" data-name="Kształt 2858" d="M748.129,4124.8a32.146,32.146,0,0,0,25.525,18.346" fill="none" stroke="#010101" stroke-linecap="round" stroke-linejoin="round" stroke-width="4"/>
    <path id="Kształt_2859" data-name="Kształt 2859" d="M755.307,4127.192l-7.977-3.989.8,11.167" fill="none" stroke="#010101" stroke-linecap="round" stroke-linejoin="round" stroke-width="4"/>
    <path id="Kształt_2858_kopia" data-name="Kształt 2858 kopia" d="M798.381,4124.8a32.146,32.146,0,0,1-25.525,18.346" fill="none" stroke="#010101" stroke-linecap="round" stroke-linejoin="round" stroke-width="4"/>
    <path id="Kształt_2859_kopia" data-name="Kształt 2859 kopia" d="M791.2,4127.192l7.977-3.989-.8,11.167" fill="none" stroke="#010101" stroke-linecap="round" stroke-linejoin="round" stroke-width="4"/>
    <line id="Kształt_2860" data-name="Kształt 2860" y2="51.85" transform="translate(773.65 4092.09)" fill="none" stroke="#010101" stroke-linecap="round" stroke-linejoin="round" stroke-width="4"/>
    <line id="Kształt_2861" data-name="Kształt 2861" x2="21.54" transform="translate(763.28 4099.07)" fill="none" stroke="#010101" stroke-linecap="round" stroke-linejoin="round" stroke-width="4"/>
    <circle id="Elipsa_12" data-name="Elipsa 12" cx="5.02" cy="5.02" r="5.02" transform="translate(768.78 4080.84)" stroke-width="4" stroke="#010101" stroke-linecap="round" stroke-linejoin="round" fill="none"/>
    <path id="Elipsa_13_kopia" data-name="Elipsa 13 kopia" d="M773.5,4057.625a55.377,55.377,0,1,1-55.357,55.37A55.363,55.363,0,0,1,773.5,4057.625Z" fill="none" stroke="#010101" stroke-linecap="round" stroke-linejoin="round" stroke-width="4"/>
    <line id="Kształt_2865" data-name="Kształt 2865" y1="21" transform="translate(794 4166)" fill="none" stroke="#010101" stroke-linecap="round" stroke-linejoin="round" stroke-width="4"/>
    <line id="Kształt_2865_kopia" data-name="Kształt 2865 kopia" y1="21" transform="translate(755 4166)" fill="none" stroke="#010101" stroke-linecap="round" stroke-linejoin="round" stroke-width="4"/>
    <path id="Elipsa_13_kopia_2" data-name="Elipsa 13 kopia 2" d="M797.477,4074.6a44.757,44.757,0,1,1-68.451,42.742m.139-11.027a44.762,44.762,0,0,1,20.358-31.715" fill="none" stroke="#010101" stroke-linecap="round" stroke-linejoin="round" stroke-width="4"/>
    <path id="Elipsa_13" data-name="Elipsa 13" d="M758.585,4070.188a44.941,44.941,0,0,1,30.557.264" fill="none" stroke="#010101" stroke-linecap="round" stroke-linejoin="round" stroke-width="4"/>
    <path id="Kształt_2863" data-name="Kształt 2863" d="M803,4162v32l-28-9" fill="none" stroke="#010101" stroke-linecap="round" stroke-linejoin="round" stroke-width="4"/>
    <path id="Kształt_2863_kopia" data-name="Kształt 2863 kopia" d="M746,4162v32l28-9" fill="none" stroke="#010101" stroke-linecap="round" stroke-linejoin="round" stroke-width="4"/>
    <line id="Kształt_2864" data-name="Kształt 2864" y2="15" transform="translate(775 4169)" fill="none" stroke="#010101" stroke-linecap="round" stroke-linejoin="round" stroke-width="4"/>
  </g>
</svg>
