<svg xmlns="http://www.w3.org/2000/svg" width="88" height="140.862" viewBox="0 0 88 140.862">
  <g id="icon_booking" data-name="icon booking" transform="translate(-1103 -4055.423)">
    <ellipse id="Elipsa_9" data-name="Elipsa 9" cx="23" cy="25" rx="23" ry="25" transform="translate(1124 4068)" fill="none" stroke="#010101" stroke-linecap="round" stroke-linejoin="round" stroke-width="4"/>
    <path id="Elipsa_9_kopia" data-name="Elipsa 9 kopia" d="M1114.12,4099v-7.06c0-19.063,15.217-34.517,32.755-34.517s32.755,15.454,32.755,34.517V4094" fill="none" stroke="#010101" stroke-linecap="round" stroke-linejoin="round" stroke-width="4"/>
    <path id="Prostokąt_zaokrąglony_11" data-name="Prostokąt zaokrąglony 11" d="M1186,4186v-37a20,20,0,0,0-20-20h-36a20,20,0,0,0-20,20v37C1110,4197.045,1186,4197.045,1186,4186Z" fill="none" stroke="#010101" stroke-linecap="round" stroke-linejoin="round" stroke-width="4"/>
    <path id="Kształt_2854" data-name="Kształt 2854" d="M1163,4130l-11,14v50" fill="none" stroke="#010101" stroke-linecap="round" stroke-linejoin="round" stroke-width="4"/>
    <line id="Kształt_2866" data-name="Kształt 2866" x2="12" transform="translate(1163 4150)" fill="none" stroke="#010101" stroke-linecap="round" stroke-linejoin="round" stroke-width="4"/>
    <line id="Kształt_2866_kopia" data-name="Kształt 2866 kopia" x2="12" transform="translate(1163 4159)" fill="none" stroke="#010101" stroke-linecap="round" stroke-linejoin="round" stroke-width="4"/>
    <path id="Kształt_2854_kopia" data-name="Kształt 2854 kopia" d="M1131,4130l11,14v50" fill="none" stroke="#010101" stroke-linecap="round" stroke-linejoin="round" stroke-width="4"/>
    <path id="Kształt_2855" data-name="Kształt 2855" d="M1142,4106s21.665,8.712,35-5a10.98,10.98,0,0,0,2-4" fill="none" stroke="#010101" stroke-linecap="round" stroke-linejoin="round" stroke-width="4"/>
    <path id="Elipsa_14" data-name="Elipsa 14" d="M1113.5,4100c-5.8,0-8.5-4.7-8.5-10.5s2.7-10.5,8.5-10.5" fill="none" stroke="#010101" stroke-linecap="round" stroke-linejoin="round" stroke-width="4"/>
    <path id="Elipsa_14_kopia" data-name="Elipsa 14 kopia" d="M1180.5,4100c5.8,0,8.5-4.7,8.5-10.5s-2.7-10.5-8.5-10.5" fill="none" stroke="#010101" stroke-linecap="round" stroke-linejoin="round" stroke-width="4"/>
  </g>
</svg>
