<svg xmlns="http://www.w3.org/2000/svg" width="35.065" height="18.276" viewBox="0 0 35.065 18.276">
  <g id="icon_menu_kopia" data-name="icon menu kopia" transform="translate(-1835.466 -1010.214)">
    <path id="Fale_1_kopia_2" data-name="Fale 1 kopia 2" d="M1836.868,1012.486c2.253,1.729,4.146,1.8,6.488,0,2.208-1.694,3.838-1.9,6.309,0a4.99,4.99,0,0,0,6.758,0c2.3-1.763,4.1-1.833,6.488,0,2.344,1.8,3.876,1.8,6.218,0" fill="none" stroke="#fff" stroke-linecap="round" stroke-linejoin="round" stroke-width="2"/>
    <path id="Fale_1_kopia_2-2" data-name="Fale 1 kopia 2" d="M1836.868,1019.327c2.253,1.729,4.146,1.8,6.488,0,2.208-1.694,3.838-1.9,6.309,0a4.991,4.991,0,0,0,6.758,0c2.3-1.764,4.1-1.833,6.488,0,2.344,1.8,3.876,1.8,6.218,0" fill="none" stroke="#fff" stroke-linecap="round" stroke-linejoin="round" stroke-width="2"/>
    <path id="Fale_1_kopia_3" data-name="Fale 1 kopia 3" d="M1836.868,1026.167c2.253,1.729,4.146,1.8,6.488,0,2.208-1.695,3.838-1.9,6.309,0a4.991,4.991,0,0,0,6.758,0c2.3-1.763,4.1-1.833,6.488,0,2.344,1.8,3.876,1.8,6.218,0" fill="none" stroke="#fff" stroke-linecap="round" stroke-linejoin="round" stroke-width="2"/>
  </g>
</svg>
