<svg xmlns="http://www.w3.org/2000/svg" width="61.065" height="18.276" viewBox="0 0 61.065 18.276">
  <g id="icon_menu" data-name="icon menu" transform="translate(-1835.466 -56.214)">
    <path id="Fale_1_kopia_2" data-name="Fale 1 kopia 2" d="M1836.868,58.487c2.253,1.729,4.146,1.8,6.488,0,2.208-1.695,3.838-1.9,6.309,0a4.991,4.991,0,0,0,6.758,0c2.3-1.764,4.1-1.833,6.488,0,2.344,1.8,3.876,1.8,6.218,0" fill="none" stroke="#fff" stroke-linecap="round" stroke-linejoin="round" stroke-width="2"/>
    <path id="Fale_1_kopia_2-2" data-name="Fale 1 kopia 2" d="M1836.868,65.326c2.253,1.729,4.146,1.8,6.488,0,2.208-1.694,3.838-1.9,6.309,0a4.99,4.99,0,0,0,6.758,0c2.3-1.764,4.1-1.832,6.488,0,2.344,1.8,3.876,1.8,6.218,0" fill="none" stroke="#fff" stroke-linecap="round" stroke-linejoin="round" stroke-width="2"/>
    <path id="Fale_1_kopia_3" data-name="Fale 1 kopia 3" d="M1836.868,72.166c2.253,1.729,4.146,1.8,6.488,0,2.208-1.694,3.838-1.9,6.309,0a4.99,4.99,0,0,0,6.758,0c2.3-1.763,4.1-1.832,6.488,0,2.344,1.8,3.876,1.8,6.218,0" fill="none" stroke="#fff" stroke-linecap="round" stroke-linejoin="round" stroke-width="2"/>
    <g id="Grupa_14" data-name="Grupa 14">
      <path id="Fale_1_kopia_4" data-name="Fale 1 kopia 4" d="M1869.356,58.487c2.208-1.695,3.838-1.9,6.309,0a4.991,4.991,0,0,0,6.758,0c2.3-1.764,4.1-1.833,6.488,0,2.344,1.8,3.876,1.8,6.218,0" fill="none" stroke="#fff" stroke-linecap="round" stroke-linejoin="round" stroke-width="2"/>
      <path id="Fale_1_kopia_4-2" data-name="Fale 1 kopia 4" d="M1869.356,65.326c2.208-1.694,3.838-1.9,6.309,0a4.99,4.99,0,0,0,6.758,0c2.3-1.764,4.1-1.832,6.488,0,2.344,1.8,3.876,1.8,6.218,0" fill="none" stroke="#fff" stroke-linecap="round" stroke-linejoin="round" stroke-width="2"/>
      <path id="Fale_1_kopia_4-3" data-name="Fale 1 kopia 4" d="M1869.356,72.166c2.208-1.694,3.838-1.9,6.309,0a4.989,4.989,0,0,0,6.758,0c2.3-1.763,4.1-1.832,6.488,0,2.344,1.8,3.876,1.8,6.218,0" fill="none" stroke="#fff" stroke-linecap="round" stroke-linejoin="round" stroke-width="2"/>
    </g>
  </g>
</svg>
