<svg xmlns="http://www.w3.org/2000/svg" width="117.021" height="132" viewBox="0 0 117.021 132">
  <g id="icon_offer" data-name="icon offer" transform="translate(-341.979 -4063)">
    <path id="Elipsa_15_kopia_4" data-name="Elipsa 15 kopia 4" d="M442,4067v108m-83-21v-72c0-9.941,8.059-17,18-17h62a18,18,0,0,1,18,18H443" fill="none" stroke="#010101" stroke-linecap="round" stroke-linejoin="round" stroke-width="4"/>
    <path id="Elipsa_15_kopia_8" data-name="Elipsa 15 kopia 8" d="M424,4191m3,2a18,18,0,0,1-18-18" fill="none" stroke="#010101" stroke-linecap="round" stroke-linejoin="round" stroke-width="4"/>
    <path id="Elipsa_15_kopia_5" data-name="Elipsa 15 kopia 5" d="M358.979,4174v-20m83,21a18,18,0,0,1-18,18h-62a18,18,0,0,1-18-18h66" fill="none" stroke="#010101" stroke-linecap="round" stroke-linejoin="round" stroke-width="4"/>
    <path id="Kształt_2868" data-name="Kształt 2868" d="M371,4091l5,5,8-14" fill="none" stroke="#010101" stroke-linecap="round" stroke-linejoin="round" stroke-width="4"/>
    <line id="Kształt_2869" data-name="Kształt 2869" x2="33" transform="translate(395 4085)" fill="none" stroke="#010101" stroke-linecap="round" stroke-linejoin="round" stroke-width="4"/>
    <line id="Kształt_2869_kopia" data-name="Kształt 2869 kopia" x2="23" transform="translate(395 4094)" fill="none" stroke="#010101" stroke-linecap="round" stroke-linejoin="round" stroke-width="4"/>
    <path id="Kształt_2868_kopia" data-name="Kształt 2868 kopia" d="M371,4122l5,5,8-14" fill="none" stroke="#010101" stroke-linecap="round" stroke-linejoin="round" stroke-width="4"/>
    <line id="Kształt_2869_kopia_2" data-name="Kształt 2869 kopia 2" x2="33" transform="translate(395 4116)" fill="none" stroke="#010101" stroke-linecap="round" stroke-linejoin="round" stroke-width="4"/>
    <line id="Kształt_2869_kopia_2-2" data-name="Kształt 2869 kopia 2" x2="23" transform="translate(395 4125)" fill="none" stroke="#010101" stroke-linecap="round" stroke-linejoin="round" stroke-width="4"/>
    <path id="Kształt_2868_kopia_2" data-name="Kształt 2868 kopia 2" d="M371,4152l5,5,8-14" fill="none" stroke="#010101" stroke-linecap="round" stroke-linejoin="round" stroke-width="4"/>
    <line id="Kształt_2869_kopia_3" data-name="Kształt 2869 kopia 3" x2="33" transform="translate(395 4146)" fill="none" stroke="#010101" stroke-linecap="round" stroke-linejoin="round" stroke-width="4"/>
    <line id="Kształt_2869_kopia_3-2" data-name="Kształt 2869 kopia 3" x2="23" transform="translate(395 4155)" fill="none" stroke="#010101" stroke-linecap="round" stroke-linejoin="round" stroke-width="4"/>
  </g>
</svg>
