<svg xmlns="http://www.w3.org/2000/svg" width="197.847" height="36.912" viewBox="0 0 197.847 36.912">
  <g id="Atlanca_logo_kopia" data-name="Atlanca logo kopia" transform="translate(-49.998 -50)">
    <g id="Atlanca_logo_kopia-2" data-name="Atlanca logo kopia" transform="translate(50 50)">
      <g id="Grupa_1" data-name="Grupa 1">
        <path id="Kształt_1_kopia_6" data-name="Kształt 1 kopia 6" d="M45.183,30.227c1.511-.948,2.62-1.756,2.817-1.883.509-.64,2.477-3.192,3.2-3.542s1.6-.731,1.691-1.3.878-2.842.878-2.842l.281-.914a5.529,5.529,0,0,0-1.359-.539c-.314.012-2.569.249-4.177.236s-9.684.381-14.552-.924-5.557-2.655-6.793-2.694c-1.146.013-5.46-.118-6.958.317-1.575.457-3.584,1.03-5.637,1.55s-.345,2.072-.345,2.072-.937.849-.986,1.107-.919.525-1.653.607c-.5.094-1.161-.975-2.025-1.04a29.822,29.822,0,0,0-6.342,1.744c-.059.159.515,4.877,1.04,8.4" fill="none" stroke="#fff" stroke-linecap="round" stroke-linejoin="round" stroke-width="1.712"/>
        <path id="Kształt_2" data-name="Kształt 2" d="M49.232,23.74a13.581,13.581,0,0,0-1.926,2.139c-.558.83-1.668,2.165-2.783,2.139s-3.894-.658-5.565,1.711-5.735,3.619-5.994.855-.812-2.712-2.141-2.78a4.292,4.292,0,0,0-4.281,2.353c-1.243,2.156-6.206,3.32-5.994.214s-2.224-2.84-3.639-2.353-3.123,3.7-5.351,3.85-3.553.342-5.137-.642l-.428-4.064.063-.019-.063-.408s-.17-.487,1.284-1.069C9.057,24.953,18.409,21.6,18.409,21.6a10.355,10.355,0,0,1,3.639-.642c3.207-.223,9.846-.642,9.846-.642s.716.165,1.5.428a28.328,28.328,0,0,0,2.907.542c.418.06-.182.271-.767.314-2.562.188-14.209,1.036-14.77,1.069a10.476,10.476,0,0,0-2.141.428l-6.636,2.139a3.955,3.955,0,0,0-1.281.674.566.566,0,0,0,.392.178c2.08-.571,5.812-1.708,5.812-1.708a24.731,24.731,0,0,1,4.281-.428c3.252-.154,27.827-.855,27.827-.855S49.833,23.167,49.232,23.74Z" fill="#fff"/>
        <path id="Prostokąt_1" data-name="Prostokąt 1" d="M14.216,15.2,11.941,9.342,8.82,17.266l-.832,2.169c-.25.667-.707,1.46.125,1.46,0,0-3.067,1.015-2.84.428L13.523,0H16.1l5.266,13.47C18.345,14.1,15.165,14.946,14.216,15.2ZM5.779,31.653l4.067,1.5-7.35.21,0,.005H0V32.323c.832,0,1.373-.918,1.665-1.668l1.845-4.769c.336-.87.6,1.284.687,3.159l-.04.1Z" fill="#fff"/>
        <path id="Elipsa_4_kopia_25" data-name="Elipsa 4 kopia 25" d="M3.84,28.01c.232,1.341,1.584,4.394,6.188,4.394A5.262,5.262,0,0,0,14.4,29.977h0a5.018,5.018,0,0,1,4.206-2.4q.158,0,.306.012c.038,0,.072.01.109.014.059.007.119.013.176.023s.089.02.133.03.089.018.13.03.1.032.145.048c.032.011.066.02.1.032.053.021.1.046.15.07.022.011.046.02.067.031a1.776,1.776,0,0,1,.151.094c.014.009.029.017.042.026a1.624,1.624,0,0,1,.146.119l.022.018a1.459,1.459,0,0,1,.134.146l.008.008a1.563,1.563,0,0,1,.1,1.7h0c-.642,1.341.207,2.427,1.9,2.427a5.005,5.005,0,0,0,4.223-2.427h0a4.242,4.242,0,0,1,1.72-1.7l.016-.008c.09-.051.181-.1.274-.146l.04-.018c.086-.042.172-.082.26-.119l.067-.026c.08-.033.16-.065.241-.094.032-.011.065-.021.1-.031.072-.024.144-.049.217-.07.042-.012.085-.021.127-.032.064-.017.127-.034.191-.048s.106-.02.159-.03.108-.022.161-.03.132-.016.2-.023c.041,0,.082-.011.122-.014q.16-.012.318-.012c1.677,0,2.524,1.07,1.909,2.4h0c-.642,1.341.207,2.427,1.9,2.427a5.005,5.005,0,0,0,4.223-2.427h0a5.018,5.018,0,0,1,4.206-2.4c1.677,0,2.524,1.07,1.909,2.4h0c-.366.764-.835,1.208-.191,1.369" fill="rgba(255,255,255,0)" stroke="#fff" stroke-linecap="round" stroke-linejoin="round" stroke-width="1.498"/>
        <path id="Elipsa_4_kopia_25-2" data-name="Elipsa 4 kopia 25" d="M8.857,35.213a2.059,2.059,0,0,0,1.972.949,5.005,5.005,0,0,0,4.223-2.427h0a5.02,5.02,0,0,1,4.207-2.4q.079,0,.155,0l.053,0,.1.006.063.007.082.009.067.01.072.011.07.014.064.013.072.018.057.014.073.022.05.016.074.027.044.016.074.032.038.016.074.037.032.016.074.042.026.015c.025.016.049.032.073.048l.021.014c.024.018.048.036.071.054l.016.013c.024.02.046.04.069.06l.012.011c.023.021.045.044.066.066l.009.009c.022.024.042.048.062.073l.005.007c.02.026.04.052.058.079l0,0c.019.028.036.056.053.085v0a1.622,1.622,0,0,1-.02,1.525h0c-.642,1.341.207,2.427,1.9,2.427A5.005,5.005,0,0,0,27.3,33.735h0A4.064,4.064,0,0,1,28.74,32.21l0,0,.134-.085.007,0,.133-.079.012-.007.132-.073.017-.009.129-.066.022-.011.126-.06.028-.013.123-.054.034-.014.119-.048.041-.015.114-.042.047-.016.11-.037.053-.016.1-.032.059-.016.1-.027.065-.016.094-.022.071-.014.089-.018.077-.013.083-.014.083-.011.077-.01.09-.009.069-.007.1-.006.056,0q.079,0,.158,0c1.677,0,2.525,1.07,1.91,2.4h0c-.642,1.341.207,2.427,1.9,2.427a5.005,5.005,0,0,0,4.223-2.427h0a5.02,5.02,0,0,1,4.207-2.4c1.677,0,2.525,1.07,1.91,2.4h0c-.642,1.341.207,2.427,1.9,2.427a5.286,5.286,0,0,0,3.026-1.052" fill="rgba(255,255,255,0)" stroke="#fff" stroke-linecap="round" stroke-linejoin="round" stroke-width="1.498"/>
        <path id="Atlanca" d="M190.855,32.887V29.873a7.97,7.97,0,0,1-6.438,3.529c-2.906,0-6-1.434-6-5.4,0-7.131,13.17-4.742,12.324-10.733-.258-1.875-1.582-2.757-3.458-2.757-3.973,0-5.15,3.492-5.15,6.285h-1.729V14.141a55.278,55.278,0,0,1,6.879-.515c6.475,0,9.087,3.9,9.087,9.851V30.5a1.582,1.582,0,0,0,1.472,1.47v.919Zm0-12.755c-.662,2.279-6.585,4.08-6.585,7.866,0,1.948.92,3.161,2.649,3.161s3.568-1.875,3.936-3.529V23.477C190.855,23.367,190.892,21.75,190.855,20.132Zm-31.967,3.382c0-5.918,4.341-9.888,10.926-9.888a48.449,48.449,0,0,1,6.4.515v6.653h-1.729c0-2.794-1.288-6.285-4.672-6.285-3.164,0-5.04,3.565-5.04,9.005s1.876,9.005,5.04,9.005c3.384,0,4.672-3.492,4.672-6.285h1.729v6.653a48.452,48.452,0,0,1-6.4.515C163.229,33.4,158.888,29.432,158.888,23.514Zm-8.827.809V19.03c0-2.1-1.1-3.161-2.98-3.161a4.528,4.528,0,0,0-3.495,2.426V30.5a1.582,1.582,0,0,0,1.472,1.47v.919h-6.99V16.53a1.582,1.582,0,0,0-1.472-1.47v-.919h6.99V16.53a8.176,8.176,0,0,1,6-2.9c2.906,0,6,1.434,6,5.4V30.5a1.582,1.582,0,0,0,1.472,1.47v.919h-6.99Zm-21.923,5.55A7.97,7.97,0,0,1,121.7,33.4c-2.906,0-6-1.434-6-5.4,0-7.131,13.17-4.742,12.324-10.733-.258-1.875-1.582-2.757-3.458-2.757-3.973,0-5.15,3.492-5.15,6.285h-1.729V14.141a55.278,55.278,0,0,1,6.879-.515c6.475,0,9.087,3.9,9.087,9.851V30.5a1.582,1.582,0,0,0,1.472,1.47v.919h-6.99Zm0-9.741c-.662,2.279-6.585,4.08-6.585,7.866,0,1.948.92,3.161,2.649,3.161s3.568-1.875,3.936-3.529V23.477C128.139,23.367,128.175,21.75,128.139,20.132ZM106.876,5.87A1.582,1.582,0,0,0,105.4,4.4V3.481h6.99V30.5a1.582,1.582,0,0,0,1.472,1.47v.919h-6.99ZM99.373,33.4c-2.906,0-6-1.434-6-5.4V16.53a1.582,1.582,0,0,0-1.472-1.47v-.919h1.472V9.546a1.582,1.582,0,0,0-1.472-1.47V7.157H98.9v6.984h5.04v.919h-3.568A1.582,1.582,0,0,0,98.9,16.53V28c0,2.1,1.1,3.161,2.98,3.161a3.678,3.678,0,0,0,2.06-.772v1.176A6.1,6.1,0,0,1,99.373,33.4Zm-20.157-8.16-.368-.956c-.294-.735-.809-1.47-1.545-1.47H70.535c-.662,0-1.177.625-1.472,1.287l-.294.735-.147.4L65.6,32.887H63.4v-.919c.736,0,1.214-.809,1.472-1.47L75.354,3.481h2.281L88.23,30.5c.258.625.736,1.47,1.472,1.47v.919H82.2ZM77.6,21.125l-.037-.147-.147-.368-.368-.956-3.09-7.94L71.2,18.7l-.736,1.911c-.221.588-.625,1.286.11,1.286H77.3C77.819,21.9,77.782,21.529,77.6,21.125Z" fill="#fff"/>
      </g>
    </g>
  </g>
</svg>
